<svg xmlns="http://www.w3.org/2000/svg" xmlns:xlink="http://www.w3.org/1999/xlink" width="538" zoomAndPan="magnify" viewBox="0 0 403.5 640.49998" height="854" preserveAspectRatio="xMidYMid meet" version="1.0"><defs><clipPath id="8a82873bde"><path d="M 0 17.589844 L 166 17.589844 L 166 156.917969 L 0 156.917969 Z M 0 17.589844 " clip-rule="nonzero"/></clipPath><clipPath id="3ddc3d3c16"><path d="M 112 318 L 154.816406 318 L 154.816406 339 L 112 339 Z M 112 318 " clip-rule="nonzero"/></clipPath><clipPath id="84d2e7aa68"><path d="M 10.996094 249.449219 L 114 249.449219 L 114 387 L 10.996094 387 Z M 10.996094 249.449219 " clip-rule="nonzero"/></clipPath><clipPath id="cae3a5a246"><path d="M 117 346 L 154.816406 346 L 154.816406 370 L 117 370 Z M 117 346 " clip-rule="nonzero"/></clipPath><clipPath id="3d104352cc"><path d="M 117 367 L 154.816406 367 L 154.816406 384 L 117 384 Z M 117 367 " clip-rule="nonzero"/></clipPath><clipPath id="ea3c5e7ab1"><path d="M 114 381 L 154.816406 381 L 154.816406 397.765625 L 114 397.765625 Z M 114 381 " clip-rule="nonzero"/></clipPath><clipPath id="02a18f3af4"><path d="M 66 381 L 114 381 L 114 397.765625 L 66 397.765625 Z M 66 381 " clip-rule="nonzero"/></clipPath><clipPath id="b44477809a"><path d="M 11 491.203125 L 172.046875 491.203125 L 172.046875 639.519531 L 11 639.519531 Z M 11 491.203125 " clip-rule="nonzero"/></clipPath><clipPath id="c8e3839863"><path d="M 253.765625 249.449219 L 402.082031 249.449219 L 402.082031 397.765625 L 253.765625 397.765625 Z M 253.765625 249.449219 " clip-rule="nonzero"/></clipPath><clipPath id="517b8030fe"><path d="M 253.765625 0.148438 L 381.859375 0.148438 L 381.859375 156.703125 L 253.765625 156.703125 Z M 253.765625 0.148438 " clip-rule="nonzero"/></clipPath></defs><g clip-path="url(#8a82873bde)"><path fill="#000000" d="M 163.273438 19.097656 L 148.921875 45.964844 C 148.859375 46.082031 148.75 46.148438 148.617188 46.152344 C 148.488281 46.152344 148.375 46.089844 148.308594 45.976562 L 143.011719 36.792969 C 142.914062 36.625 142.699219 36.566406 142.53125 36.664062 L 117.464844 51.140625 C 117.34375 51.210938 117.203125 51.203125 117.089844 51.125 C 116.976562 51.046875 116.921875 50.914062 116.945312 50.777344 C 117.222656 49.140625 117.667969 47.566406 118.277344 46.121094 L 122.3125 36.5625 C 122.34375 36.492188 122.390625 36.4375 122.460938 36.394531 L 137.398438 27.769531 C 137.566406 27.671875 137.621094 27.457031 137.527344 27.289062 L 132.226562 18.105469 C 132.160156 17.992188 132.160156 17.863281 132.230469 17.75 C 132.296875 17.636719 132.410156 17.574219 132.539062 17.582031 L 162.976562 18.582031 C 163.097656 18.585938 163.203125 18.648438 163.265625 18.757812 C 163.328125 18.863281 163.332031 18.988281 163.273438 19.097656 Z M 53.351562 39.796875 C 54.171875 35.503906 55.714844 31.835938 59.386719 30.277344 C 59.398438 30.273438 59.410156 30.269531 59.421875 30.265625 L 60.167969 30.042969 C 60.320312 29.996094 60.417969 29.863281 60.417969 29.707031 C 60.417969 29.546875 60.320312 29.414062 60.167969 29.371094 L 59.421875 29.144531 C 59.410156 29.140625 59.398438 29.136719 59.386719 29.132812 C 55.714844 27.574219 54.171875 23.90625 53.351562 19.613281 C 53.320312 19.449219 53.175781 19.332031 53.007812 19.332031 C 52.835938 19.332031 52.695312 19.449219 52.664062 19.613281 C 51.839844 23.90625 50.296875 27.578125 46.625 29.132812 C 46.613281 29.136719 46.601562 29.140625 46.589844 29.144531 L 45.84375 29.371094 C 45.695312 29.414062 45.59375 29.546875 45.59375 29.707031 C 45.59375 29.863281 45.695312 29.996094 45.84375 30.042969 L 46.589844 30.265625 C 46.601562 30.269531 46.613281 30.273438 46.625 30.277344 C 50.296875 31.835938 51.839844 35.503906 52.664062 39.796875 C 52.695312 39.964844 52.835938 40.082031 53.007812 40.082031 C 53.175781 40.082031 53.320312 39.960938 53.351562 39.796875 Z M 147.007812 89.113281 C 147.832031 84.820312 149.375 81.152344 153.046875 79.597656 C 153.058594 79.589844 153.070312 79.585938 153.082031 79.582031 L 153.828125 79.359375 C 153.976562 79.3125 154.078125 79.179688 154.078125 79.023438 C 154.078125 78.867188 153.976562 78.734375 153.828125 78.6875 L 153.082031 78.460938 C 153.066406 78.457031 153.058594 78.457031 153.046875 78.449219 C 149.375 76.894531 147.828125 73.222656 147.007812 68.933594 C 146.976562 68.765625 146.835938 68.648438 146.664062 68.648438 C 146.496094 68.648438 146.351562 68.765625 146.320312 68.933594 C 145.5 73.222656 143.957031 76.894531 140.285156 78.449219 C 140.273438 78.453125 140.261719 78.457031 140.25 78.460938 L 139.503906 78.6875 C 139.351562 78.730469 139.253906 78.867188 139.253906 79.023438 C 139.253906 79.179688 139.351562 79.3125 139.503906 79.359375 L 140.25 79.582031 C 140.261719 79.585938 140.273438 79.589844 140.285156 79.59375 C 143.957031 81.152344 145.5 84.820312 146.320312 89.113281 C 146.351562 89.28125 146.496094 89.398438 146.664062 89.398438 C 146.835938 89.398438 146.976562 89.28125 147.007812 89.113281 Z M 27.394531 116.789062 L 40.3125 116.789062 C 41.765625 116.789062 42.957031 117.980469 42.957031 119.4375 L 42.957031 152.203125 C 42.957031 153.660156 41.765625 154.851562 40.3125 154.851562 L 27.394531 154.851562 C 25.9375 154.851562 24.746094 153.660156 24.746094 152.203125 L 24.746094 119.4375 C 24.746094 117.980469 25.9375 116.789062 27.394531 116.789062 Z M 113.054688 124.941406 C 114.425781 124.664062 115.757812 124.304688 117.050781 123.871094 C 126.832031 120.601562 142.507812 111.683594 155.664062 104.269531 C 158.40625 102.722656 161.792969 103.355469 163.792969 105.785156 L 164.089844 106.148438 C 166.246094 108.765625 166.011719 112.585938 163.550781 114.917969 C 153.339844 124.59375 139.183594 136.65625 127.570312 144.1875 C 119.613281 149.351562 109.421875 155.496094 99.800781 156.28125 C 92.164062 156.902344 84.609375 154.109375 76.960938 153.007812 C 67.773438 151.679688 58.125 151.542969 48.5625 151.609375 C 48.464844 151.609375 48.382812 151.578125 48.3125 151.507812 C 48.246094 151.441406 48.210938 151.355469 48.210938 151.257812 L 48.210938 119.433594 C 48.210938 119.128906 48.191406 118.824219 48.160156 118.527344 C 48.140625 118.351562 48.253906 118.1875 48.425781 118.148438 C 50.390625 117.671875 52.347656 117.183594 54.300781 116.652344 C 63.460938 114.15625 69.835938 106.820312 79.984375 109.878906 L 103.050781 116.835938 C 106.703125 117.9375 108.816406 121.789062 107.808594 125.453125 C 107.808594 125.457031 107.808594 125.457031 107.808594 125.460938 C 107.058594 127.953125 104.488281 128.921875 102.0625 128.414062 C 96.488281 127.242188 89.214844 125.148438 83.953125 125.300781 C 82.941406 125.328125 81.957031 125.414062 80.996094 125.554688 C 79.5625 125.757812 78.566406 127.085938 78.769531 128.519531 C 78.972656 129.953125 80.300781 130.953125 81.734375 130.746094 C 83.34375 130.519531 84.824219 130.460938 86.40625 130.609375 C 90.332031 130.984375 96.527344 132.605469 100.996094 133.546875 C 103.542969 134.082031 106.136719 133.710938 108.273438 132.566406 C 110.34375 131.453125 111.980469 129.628906 112.765625 127.199219 C 112.765625 127.195312 112.769531 127.191406 112.769531 127.1875 C 112.980469 126.585938 112.996094 125.980469 112.792969 125.402344 C 112.757812 125.304688 112.765625 125.203125 112.820312 125.113281 C 112.871094 125.023438 112.949219 124.964844 113.054688 124.941406 Z M 86.039062 60.628906 C 86.429688 58.011719 86.433594 55.335938 86.046875 52.726562 C 86.03125 52.621094 86.0625 52.527344 86.128906 52.445312 C 86.199219 52.367188 86.289062 52.324219 86.394531 52.324219 L 111.121094 52.324219 C 111.222656 52.324219 111.308594 52.363281 111.378906 52.4375 C 111.445312 52.511719 111.476562 52.601562 111.472656 52.699219 C 111.277344 55.320312 111.421875 58.003906 111.90625 60.617188 C 111.925781 60.722656 111.898438 60.820312 111.832031 60.902344 C 111.761719 60.984375 111.667969 61.03125 111.5625 61.03125 L 86.386719 61.03125 C 86.28125 61.03125 86.1875 60.988281 86.121094 60.910156 C 86.050781 60.828125 86.023438 60.734375 86.039062 60.628906 Z M 119.949219 75.296875 C 117.164062 72.96875 115.066406 69.910156 113.644531 66.5 C 113.585938 66.367188 113.464844 66.285156 113.320312 66.285156 L 84.785156 66.285156 C 84.640625 66.285156 84.515625 66.371094 84.460938 66.507812 C 83.082031 69.953125 80.953125 73.085938 78.089844 75.539062 C 69.738281 82.683594 65.390625 93.714844 67.097656 105.050781 C 67.113281 105.160156 67.171875 105.242188 67.261719 105.300781 C 67.355469 105.355469 67.457031 105.367188 67.558594 105.332031 C 72.171875 103.726562 76.734375 103.507812 81.476562 104.9375 L 104.539062 111.894531 C 108.359375 113.046875 111.21875 115.949219 112.488281 119.46875 C 112.550781 119.636719 112.726562 119.734375 112.898438 119.691406 C 117.542969 118.585938 123.199219 115.851562 127.398438 113.765625 C 127.882812 113.523438 128.371094 113.28125 128.855469 113.035156 C 128.933594 112.996094 128.988281 112.9375 129.023438 112.859375 C 130.671875 108.96875 131.589844 104.6875 131.589844 100.195312 C 131.589844 90.191406 127.0625 81.246094 119.949219 75.296875 Z M 107.042969 78.433594 C 105.550781 77.726562 103.699219 77.152344 101.78125 76.878906 C 101.605469 76.855469 101.480469 76.707031 101.480469 76.53125 L 101.480469 74.601562 C 101.480469 73.320312 100.441406 72.285156 99.160156 72.285156 C 97.882812 72.285156 96.84375 73.320312 96.84375 74.601562 L 96.84375 76.640625 C 96.84375 76.808594 96.730469 76.949219 96.566406 76.984375 C 95.871094 77.132812 95.191406 77.339844 94.542969 77.617188 L 94.542969 77.613281 C 88.300781 80.199219 88.84375 86.792969 94.527344 89.28125 L 94.527344 89.285156 C 96.265625 90.015625 97.660156 90.105469 99.066406 90.199219 C 100.457031 90.292969 102.535156 90.496094 103.492188 91.742188 C 104.234375 92.710938 103.078125 93.496094 102.140625 93.90625 L 102.140625 93.902344 C 99.4375 95.046875 95.667969 94.257812 93.214844 93.148438 C 92.050781 92.621094 90.679688 93.140625 90.15625 94.304688 C 89.632812 95.472656 90.148438 96.84375 91.316406 97.367188 C 92.839844 98.058594 94.660156 98.625 96.546875 98.902344 C 96.71875 98.929688 96.84375 99.074219 96.84375 99.25 L 96.84375 101.191406 C 96.84375 102.472656 97.882812 103.511719 99.160156 103.511719 C 100.441406 103.511719 101.480469 102.472656 101.480469 101.191406 L 101.480469 99.167969 C 101.480469 99 101.59375 98.859375 101.757812 98.824219 C 102.503906 98.675781 103.234375 98.457031 103.933594 98.160156 C 106.464844 97.09375 108.359375 95.007812 108.363281 92.367188 C 108.363281 89.710938 106.546875 87.792969 104.113281 86.589844 C 101.316406 85.207031 98.582031 85.957031 96.320312 85.007812 L 96.316406 85.011719 C 95.671875 84.703125 95.210938 84.34375 94.929688 83.972656 C 94.199219 82.992188 95.324219 82.292969 96.300781 81.890625 L 96.300781 81.886719 C 98.964844 80.777344 102.671875 81.484375 105.070312 82.621094 C 106.226562 83.164062 107.605469 82.671875 108.148438 81.515625 C 108.691406 80.359375 108.199219 78.980469 107.042969 78.433594 Z M 84.441406 46.851562 C 84.496094 46.988281 84.621094 47.070312 84.765625 47.070312 L 112.179688 47.070312 C 112.335938 47.070312 112.472656 46.96875 112.515625 46.816406 C 112.789062 45.882812 113.109375 44.972656 113.480469 44.09375 L 119.863281 28.976562 C 119.917969 28.84375 119.890625 28.695312 119.785156 28.589844 C 119.679688 28.488281 119.53125 28.460938 119.398438 28.519531 C 95.070312 39.097656 98.308594 28.136719 85.644531 30.003906 C 82.234375 30.507812 79.359375 32.101562 77.054688 34.847656 C 76.953125 34.972656 76.945312 35.140625 77.039062 35.273438 L 82.0625 42.476562 C 83.015625 43.84375 83.808594 45.3125 84.441406 46.851562 Z M 53.507812 87.617188 L 45.65625 74.011719 C 45.5625 73.855469 45.367188 73.792969 45.203125 73.871094 L 0.558594 94.984375 C 0.394531 95.0625 0.199219 95.003906 0.109375 94.847656 C 0.015625 94.695312 0.0546875 94.496094 0.195312 94.386719 L 48.042969 58.394531 C 48.125 58.332031 48.222656 58.3125 48.324219 58.332031 C 48.425781 58.351562 48.503906 58.410156 48.554688 58.5 L 57.269531 73.601562 C 57.324219 73.691406 57.402344 73.746094 57.5 73.769531 C 57.601562 73.789062 57.695312 73.769531 57.78125 73.710938 L 80.789062 56.941406 C 80.882812 56.875 80.988281 56.859375 81.097656 56.890625 C 81.207031 56.925781 81.289062 57 81.324219 57.109375 C 82.769531 61.167969 79.773438 67.621094 74.703125 71.578125 L 54.023438 87.722656 C 53.941406 87.785156 53.847656 87.808594 53.742188 87.789062 C 53.640625 87.765625 53.558594 87.710938 53.507812 87.617188 Z M 53.507812 87.617188 " fill-opacity="1" fill-rule="evenodd"/></g><g clip-path="url(#3ddc3d3c16)"><path fill="#000000" d="M 152.496094 318.972656 L 143.21875 318.972656 C 141.9375 318.972656 140.898438 320.011719 140.898438 321.289062 C 140.898438 322.570312 141.9375 323.609375 143.21875 323.609375 L 146.882812 323.609375 L 138.113281 332.367188 L 125.703125 326.179688 C 124.871094 325.761719 123.894531 325.878906 123.175781 326.457031 L 112.992188 334.941406 C 114.246094 336.007812 115.242188 337.1875 116.007812 338.460938 L 124.984375 331 L 137.535156 337.257812 C 138.441406 337.722656 139.507812 337.535156 140.226562 336.839844 L 150.175781 326.898438 L 150.175781 330.558594 C 150.175781 331.839844 151.214844 332.878906 152.496094 332.878906 C 153.78125 332.878906 154.816406 331.839844 154.816406 330.558594 L 154.816406 321.289062 C 154.816406 320.011719 153.78125 318.972656 152.496094 318.972656 Z M 152.496094 318.972656 " fill-opacity="1" fill-rule="nonzero"/></g><path fill="#000000" d="M 29.554688 335.195312 L 29.554688 344.464844 L 38.835938 344.464844 L 38.832031 335.195312 Z M 29.554688 335.195312 " fill-opacity="1" fill-rule="nonzero"/><path fill="#000000" d="M 29.554688 360.6875 L 29.554688 369.957031 L 38.835938 369.957031 L 38.832031 360.6875 Z M 29.554688 360.6875 " fill-opacity="1" fill-rule="nonzero"/><path fill="#000000" d="M 29.554688 309.703125 L 29.554688 318.972656 L 38.835938 318.972656 L 38.832031 309.703125 Z M 29.554688 309.703125 " fill-opacity="1" fill-rule="nonzero"/><path fill="#000000" d="M 85.226562 309.703125 L 85.226562 318.972656 L 94.507812 318.972656 L 94.503906 309.703125 Z M 85.226562 309.703125 " fill-opacity="1" fill-rule="nonzero"/><path fill="#000000" d="M 57.390625 344.464844 L 62.027344 344.464844 L 62.027344 343.699219 L 62.074219 343.746094 C 62.28125 340.484375 63.863281 337.585938 66.511719 335.195312 L 57.390625 335.195312 Z M 57.390625 344.464844 " fill-opacity="1" fill-rule="nonzero"/><g clip-path="url(#84d2e7aa68)"><path fill="#000000" d="M 52.75 344.464844 L 52.75 335.195312 C 52.75 332.644531 54.839844 330.558594 57.390625 330.558594 L 66.667969 330.558594 C 68.199219 330.558594 69.542969 331.324219 70.402344 332.460938 C 75.25 329.796875 81.976562 328.242188 89.867188 328.242188 C 97.566406 328.242188 104.15625 329.726562 108.980469 332.253906 L 113.0625 328.867188 L 113.0625 265.671875 C 113.0625 256.730469 105.777344 249.453125 96.824219 249.453125 L 27.234375 249.453125 C 18.28125 249.453125 10.996094 256.730469 10.996094 265.671875 L 10.996094 369.957031 C 10.996094 378.902344 18.28125 386.175781 27.234375 386.175781 L 62.027344 386.175781 L 62.027344 374.589844 L 57.390625 374.589844 C 54.839844 374.589844 52.75 372.503906 52.75 369.957031 L 52.75 360.6875 C 52.75 358.136719 54.839844 356.050781 57.390625 356.050781 L 62.027344 356.050781 L 62.027344 349.097656 L 57.390625 349.097656 C 54.839844 349.097656 52.75 347.015625 52.75 344.464844 Z M 71.308594 318.972656 C 71.308594 321.523438 69.21875 323.609375 66.667969 323.609375 L 57.390625 323.609375 C 54.839844 323.609375 52.75 321.523438 52.75 318.972656 L 52.75 309.703125 C 52.75 307.15625 54.839844 305.070312 57.390625 305.070312 L 66.667969 305.070312 C 69.21875 305.070312 71.308594 307.15625 71.308594 309.703125 Z M 99.144531 318.972656 C 99.144531 321.523438 97.054688 323.609375 94.503906 323.609375 L 85.226562 323.609375 C 82.675781 323.609375 80.585938 321.523438 80.585938 318.972656 L 80.585938 309.703125 C 80.585938 307.15625 82.675781 305.070312 85.226562 305.070312 L 94.503906 305.070312 C 97.054688 305.070312 99.144531 307.15625 99.144531 309.703125 Z M 43.472656 369.957031 C 43.472656 372.503906 41.382812 374.589844 38.832031 374.589844 L 29.554688 374.589844 C 27 374.589844 24.914062 372.503906 24.914062 369.957031 L 24.914062 360.6875 C 24.914062 358.136719 27 356.050781 29.554688 356.050781 L 38.832031 356.050781 C 41.382812 356.050781 43.472656 358.136719 43.472656 360.6875 Z M 43.472656 344.464844 C 43.472656 347.015625 41.382812 349.097656 38.832031 349.097656 L 29.554688 349.097656 C 27 349.097656 24.914062 347.015625 24.914062 344.464844 L 24.914062 335.195312 C 24.914062 332.644531 27 330.558594 29.554688 330.558594 L 38.832031 330.558594 C 41.382812 330.558594 43.472656 332.644531 43.472656 335.195312 Z M 43.472656 318.972656 C 43.472656 321.523438 41.382812 323.609375 38.832031 323.609375 L 29.554688 323.609375 C 27 323.609375 24.914062 321.523438 24.914062 318.972656 L 24.914062 309.703125 C 24.914062 307.15625 27 305.070312 29.554688 305.070312 L 38.832031 305.070312 C 41.382812 305.070312 43.472656 307.15625 43.472656 309.703125 Z M 24.914062 298.117188 C 23.636719 298.117188 22.59375 297.074219 22.59375 295.800781 L 22.59375 263.355469 C 22.59375 262.082031 23.636719 261.039062 24.914062 261.039062 L 99.144531 261.039062 C 100.421875 261.039062 101.464844 262.082031 101.464844 263.355469 L 101.464844 295.800781 C 101.464844 297.074219 100.421875 298.117188 99.144531 298.117188 Z M 24.914062 298.117188 " fill-opacity="1" fill-rule="nonzero"/></g><path fill="#000000" d="M 57.390625 309.703125 L 57.390625 318.972656 L 66.671875 318.972656 L 66.667969 309.703125 Z M 57.390625 309.703125 " fill-opacity="1" fill-rule="nonzero"/><path fill="#000000" d="M 57.390625 360.6875 L 62.027344 360.6875 L 62.027344 369.957031 L 57.390625 369.957031 Z M 57.390625 360.6875 " fill-opacity="1" fill-rule="nonzero"/><path fill="#000000" d="M 27.234375 293.480469 L 96.824219 293.480469 L 96.824219 265.671875 L 27.234375 265.671875 Z M 85.226562 284.210938 L 89.867188 284.210938 C 91.148438 284.210938 92.183594 285.25 92.183594 286.53125 C 92.183594 287.8125 91.148438 288.847656 89.867188 288.847656 L 85.226562 288.847656 C 83.945312 288.847656 82.90625 287.8125 82.90625 286.53125 C 82.90625 285.25 83.945312 284.210938 85.226562 284.210938 Z M 71.308594 284.210938 L 75.945312 284.210938 C 77.230469 284.210938 78.265625 285.25 78.265625 286.53125 C 78.265625 287.8125 77.230469 288.847656 75.945312 288.847656 L 71.308594 288.847656 C 70.027344 288.847656 68.988281 287.8125 68.988281 286.53125 C 68.988281 285.25 70.027344 284.210938 71.308594 284.210938 Z M 57.390625 284.210938 L 62.027344 284.210938 C 63.3125 284.210938 64.347656 285.25 64.347656 286.53125 C 64.347656 287.8125 63.3125 288.847656 62.027344 288.847656 L 57.390625 288.847656 C 56.109375 288.847656 55.070312 287.8125 55.070312 286.53125 C 55.070312 285.25 56.109375 284.210938 57.390625 284.210938 Z M 57.390625 284.210938 " fill-opacity="1" fill-rule="nonzero"/><path fill="#000000" d="M 113.0625 344.464844 C 113.0625 344.84375 113.023438 345.222656 112.949219 345.601562 C 112.875 345.976562 112.765625 346.351562 112.617188 346.726562 C 112.46875 347.097656 112.285156 347.464844 112.0625 347.828125 C 111.84375 348.191406 111.585938 348.546875 111.296875 348.898438 C 111.007812 349.25 110.679688 349.59375 110.324219 349.925781 C 109.964844 350.261719 109.574219 350.585938 109.152344 350.902344 C 108.730469 351.21875 108.277344 351.523438 107.796875 351.816406 C 107.316406 352.109375 106.804688 352.390625 106.269531 352.65625 C 105.730469 352.925781 105.167969 353.179688 104.582031 353.421875 C 103.992188 353.664062 103.382812 353.886719 102.753906 354.097656 C 102.121094 354.308594 101.46875 354.503906 100.800781 354.683594 C 100.128906 354.863281 99.445312 355.023438 98.742188 355.167969 C 98.039062 355.316406 97.324219 355.441406 96.597656 355.550781 C 95.871094 355.664062 95.136719 355.753906 94.390625 355.828125 C 93.644531 355.902344 92.894531 355.957031 92.140625 355.996094 C 91.382812 356.03125 90.625 356.050781 89.867188 356.050781 C 89.105469 356.050781 88.347656 356.03125 87.589844 355.996094 C 86.835938 355.957031 86.085938 355.902344 85.339844 355.828125 C 84.59375 355.753906 83.859375 355.664062 83.132812 355.550781 C 82.40625 355.441406 81.691406 355.316406 80.988281 355.167969 C 80.285156 355.023438 79.601562 354.863281 78.929688 354.683594 C 78.261719 354.503906 77.609375 354.308594 76.976562 354.097656 C 76.347656 353.886719 75.738281 353.664062 75.148438 353.421875 C 74.5625 353.179688 74 352.925781 73.460938 352.65625 C 72.925781 352.390625 72.414062 352.109375 71.933594 351.816406 C 71.453125 351.523438 71 351.21875 70.578125 350.902344 C 70.15625 350.585938 69.765625 350.261719 69.40625 349.925781 C 69.050781 349.59375 68.726562 349.25 68.433594 348.898438 C 68.144531 348.546875 67.886719 348.191406 67.667969 347.828125 C 67.445312 347.464844 67.261719 347.097656 67.113281 346.726562 C 66.964844 346.351562 66.855469 345.976562 66.78125 345.601562 C 66.707031 345.222656 66.667969 344.84375 66.667969 344.464844 C 66.667969 344.085938 66.707031 343.707031 66.78125 343.328125 C 66.855469 342.953125 66.964844 342.578125 67.113281 342.203125 C 67.261719 341.832031 67.445312 341.464844 67.667969 341.101562 C 67.886719 340.738281 68.144531 340.382812 68.433594 340.03125 C 68.726562 339.679688 69.050781 339.335938 69.40625 339.003906 C 69.765625 338.667969 70.15625 338.34375 70.578125 338.027344 C 71 337.710938 71.453125 337.40625 71.933594 337.113281 C 72.414062 336.820312 72.925781 336.539062 73.460938 336.273438 C 74 336.003906 74.5625 335.75 75.148438 335.507812 C 75.738281 335.265625 76.347656 335.042969 76.976562 334.832031 C 77.609375 334.621094 78.261719 334.425781 78.929688 334.246094 C 79.601562 334.066406 80.285156 333.90625 80.988281 333.757812 C 81.691406 333.613281 82.40625 333.488281 83.132812 333.375 C 83.859375 333.265625 84.59375 333.175781 85.339844 333.101562 C 86.085938 333.027344 86.835938 332.972656 87.589844 332.933594 C 88.347656 332.894531 89.105469 332.878906 89.867188 332.878906 C 90.625 332.878906 91.382812 332.894531 92.140625 332.933594 C 92.894531 332.972656 93.644531 333.027344 94.390625 333.101562 C 95.136719 333.175781 95.871094 333.265625 96.597656 333.375 C 97.324219 333.488281 98.039062 333.613281 98.742188 333.757812 C 99.445312 333.90625 100.128906 334.066406 100.800781 334.246094 C 101.46875 334.425781 102.121094 334.621094 102.753906 334.832031 C 103.382812 335.042969 103.992188 335.265625 104.582031 335.507812 C 105.167969 335.75 105.730469 336.003906 106.269531 336.273438 C 106.804688 336.539062 107.316406 336.820312 107.796875 337.113281 C 108.277344 337.40625 108.730469 337.710938 109.152344 338.027344 C 109.574219 338.34375 109.964844 338.667969 110.324219 339.003906 C 110.679688 339.335938 111.007812 339.679688 111.296875 340.03125 C 111.585938 340.382812 111.84375 340.738281 112.0625 341.101562 C 112.285156 341.464844 112.46875 341.832031 112.617188 342.203125 C 112.765625 342.578125 112.875 342.953125 112.949219 343.328125 C 113.023438 343.707031 113.0625 344.085938 113.0625 344.464844 Z M 113.0625 344.464844 " fill-opacity="1" fill-rule="nonzero"/><path fill="#000000" d="M 66.667969 353.917969 L 66.667969 358.367188 C 66.667969 364.972656 76.644531 369.957031 89.867188 369.957031 C 103.085938 369.957031 113.0625 364.972656 113.0625 358.367188 L 113.0625 353.917969 C 108.238281 358.136719 100.003906 360.6875 89.867188 360.6875 C 79.726562 360.6875 71.492188 358.136719 66.667969 353.917969 Z M 66.667969 353.917969 " fill-opacity="1" fill-rule="nonzero"/><path fill="#000000" d="M 66.667969 367.824219 L 66.667969 372.273438 C 66.667969 378.878906 76.644531 383.859375 89.867188 383.859375 C 103.085938 383.859375 113.0625 378.878906 113.0625 372.273438 L 113.0625 367.824219 C 108.238281 372.042969 100.003906 374.589844 89.867188 374.589844 C 79.726562 374.589844 71.492188 372.042969 66.667969 367.824219 Z M 66.667969 367.824219 " fill-opacity="1" fill-rule="nonzero"/><g clip-path="url(#cae3a5a246)"><path fill="#000000" d="M 131.621094 346.78125 C 126.308594 346.78125 121.53125 347.59375 117.703125 348.984375 L 117.703125 367.753906 C 121.53125 369.144531 126.308594 369.957031 131.621094 369.957031 C 144.84375 369.957031 154.816406 364.972656 154.816406 358.367188 C 154.816406 351.765625 144.84375 346.78125 131.621094 346.78125 Z M 131.621094 346.78125 " fill-opacity="1" fill-rule="nonzero"/></g><g clip-path="url(#3d104352cc)"><path fill="#000000" d="M 117.703125 372.667969 L 117.703125 381.660156 C 121.53125 383.050781 126.308594 383.859375 131.621094 383.859375 C 144.84375 383.859375 154.816406 378.878906 154.816406 372.273438 L 154.816406 367.824219 C 149.992188 372.042969 141.757812 374.589844 131.621094 374.589844 C 126.402344 374.589844 121.691406 373.917969 117.703125 372.667969 Z M 117.703125 372.667969 " fill-opacity="1" fill-rule="nonzero"/></g><g clip-path="url(#ea3c5e7ab1)"><path fill="#000000" d="M 117.703125 386.570312 C 117.609375 389.398438 116.496094 391.972656 114.546875 394.171875 C 118.722656 396.421875 124.730469 397.765625 131.621094 397.765625 C 144.84375 397.765625 154.816406 392.78125 154.816406 386.175781 L 154.816406 381.726562 C 149.992188 385.945312 141.757812 388.496094 131.621094 388.496094 C 126.402344 388.496094 121.691406 387.824219 117.703125 386.570312 Z M 117.703125 386.570312 " fill-opacity="1" fill-rule="nonzero"/></g><g clip-path="url(#02a18f3af4)"><path fill="#000000" d="M 66.667969 381.726562 L 66.667969 386.175781 C 66.667969 392.78125 76.644531 397.765625 89.867188 397.765625 C 103.085938 397.765625 113.0625 392.78125 113.0625 386.175781 L 113.0625 381.726562 C 108.238281 385.945312 100.003906 388.496094 89.867188 388.496094 C 79.726562 388.496094 71.492188 385.945312 66.667969 381.726562 Z M 66.667969 381.726562 " fill-opacity="1" fill-rule="nonzero"/></g><g clip-path="url(#b44477809a)"><path fill="#000000" d="M 142.125 613.601562 C 142.125 612.132812 143.320312 610.945312 144.792969 610.945312 C 146.261719 610.945312 147.457031 612.132812 147.457031 613.601562 L 147.457031 636.789062 C 147.457031 638.257812 146.261719 639.445312 144.792969 639.445312 L 121.535156 639.445312 C 120.0625 639.445312 118.867188 638.257812 118.867188 636.789062 C 118.867188 635.320312 120.0625 634.132812 121.535156 634.132812 L 141.769531 634.132812 C 141.964844 634.132812 142.125 633.972656 142.125 633.777344 Z M 171.515625 516.351562 L 135.976562 539.929688 C 135.871094 540 135.8125 540.109375 135.816406 540.238281 C 135.820312 540.363281 135.886719 540.46875 135.996094 540.53125 L 143.847656 545.054688 L 143.84375 545.058594 C 145.210938 545.882812 145.59375 547.566406 144.773438 548.855469 C 117.082031 592.214844 79.8125 621.96875 32.050781 636.878906 C 31.875 636.933594 31.773438 637.113281 31.8125 637.292969 C 31.851562 637.46875 32.015625 637.589844 32.199219 637.570312 C 53.628906 635.136719 73.289062 629.378906 91.082031 620.117188 C 117.226562 606.507812 139.394531 585.289062 157.277344 555.878906 C 158.03125 554.605469 159.675781 554.171875 160.964844 554.910156 L 168.820312 559.433594 C 168.929688 559.496094 169.054688 559.5 169.164062 559.4375 C 169.277344 559.378906 169.34375 559.277344 169.351562 559.148438 L 172.066406 516.667969 C 172.074219 516.53125 172.007812 516.410156 171.890625 516.339844 C 171.769531 516.269531 171.628906 516.277344 171.515625 516.351562 Z M 116.589844 512.679688 C 116.589844 508.019531 112.785156 504.226562 108.113281 504.226562 L 106.480469 504.226562 C 106.285156 504.226562 106.125 504.066406 106.125 503.871094 L 106.125 494.375 C 106.125 492.648438 107.542969 491.234375 109.273438 491.234375 L 133.113281 491.234375 C 134.84375 491.234375 136.261719 492.648438 136.261719 494.375 L 136.261719 533.035156 C 136.261719 533.15625 136.207031 533.261719 136.105469 533.332031 L 128.839844 538.148438 C 127.167969 539.253906 127.226562 541.746094 128.980469 542.757812 L 138.332031 548.140625 C 138.417969 548.191406 138.476562 548.265625 138.5 548.363281 C 138.523438 548.460938 138.507812 548.554688 138.449219 548.640625 C 131.878906 558.648438 124.800781 567.84375 117.210938 576.234375 C 117.109375 576.347656 116.960938 576.382812 116.820312 576.328125 C 116.679688 576.277344 116.59375 576.148438 116.59375 576 L 116.59375 512.679688 Z M 91.589844 534.707031 C 91.589844 530.046875 87.785156 526.253906 83.109375 526.253906 L 81.480469 526.253906 C 81.285156 526.253906 81.125 526.09375 81.125 525.898438 L 81.125 512.679688 C 81.125 510.953125 82.542969 509.542969 84.273438 509.542969 L 108.113281 509.542969 C 109.84375 509.542969 111.261719 510.953125 111.261719 512.679688 L 111.261719 582.398438 C 111.261719 582.496094 111.226562 582.578125 111.160156 582.648438 C 105.125 588.769531 98.792969 594.417969 92.164062 599.59375 C 92.054688 599.679688 91.914062 599.691406 91.789062 599.632812 C 91.664062 599.570312 91.589844 599.453125 91.589844 599.3125 Z M 66.585938 556.734375 C 66.585938 552.074219 62.78125 548.28125 58.109375 548.28125 L 56.476562 548.28125 C 56.28125 548.28125 56.121094 548.121094 56.121094 547.925781 L 56.121094 534.707031 C 56.121094 532.980469 57.539062 531.566406 59.269531 531.566406 L 83.109375 531.566406 C 84.839844 531.566406 86.257812 532.980469 86.257812 534.707031 L 86.257812 603.839844 C 86.257812 603.957031 86.207031 604.058594 86.113281 604.125 C 80.019531 608.503906 73.6875 612.503906 67.117188 616.125 C 67.003906 616.1875 66.875 616.1875 66.761719 616.121094 C 66.652344 616.054688 66.589844 615.945312 66.589844 615.816406 L 66.589844 556.734375 Z M 61.257812 619.007812 C 61.257812 619.144531 61.183594 619.261719 61.0625 619.320312 C 51.699219 624.054688 41.871094 628.058594 31.585938 631.335938 C 31.472656 631.371094 31.359375 631.355469 31.265625 631.285156 C 31.171875 631.214844 31.121094 631.113281 31.121094 631 L 31.121094 556.734375 C 31.121094 555.007812 32.539062 553.59375 34.269531 553.59375 L 58.109375 553.59375 C 59.839844 553.59375 61.257812 555.007812 61.257812 556.734375 Z M 16.347656 518.140625 C 16.347656 519.609375 15.152344 520.796875 13.679688 520.796875 C 12.210938 520.796875 11.015625 519.609375 11.015625 518.140625 L 11.015625 494.953125 C 11.015625 493.488281 12.210938 492.296875 13.679688 492.296875 L 36.9375 492.296875 C 38.410156 492.296875 39.605469 493.488281 39.605469 494.953125 C 39.605469 496.421875 38.410156 497.613281 36.9375 497.613281 L 16.703125 497.613281 C 16.507812 497.613281 16.347656 497.769531 16.347656 497.964844 Z M 16.347656 518.140625 " fill-opacity="1" fill-rule="evenodd"/></g><g clip-path="url(#c8e3839863)"><path fill="#000000" d="M 277.234375 355.023438 L 253.773438 378.015625 L 253.773438 312.011719 L 277.234375 312.011719 Z M 316.335938 340.632812 L 304.058594 330.15625 L 292.875 340.476562 L 292.875 280.730469 L 316.335938 280.730469 Z M 355.4375 327.652344 L 331.976562 351.113281 L 331.976562 249.449219 L 355.4375 249.449219 Z M 377.414062 326.167969 L 363.257812 312.011719 L 402.359375 312.011719 L 402.359375 351.113281 L 388.363281 337.113281 L 331.976562 393.03125 L 304.839844 369.414062 L 275.28125 398.035156 L 253.773438 398.035156 L 304.371094 348.453125 L 331.976562 371.757812 " fill-opacity="1" fill-rule="nonzero"/></g><g clip-path="url(#517b8030fe)"><path fill="#000000" d="M 345.609375 112.285156 L 341.902344 114.445312 C 344.023438 107.507812 343.113281 99.882812 339.121094 92.875 C 336.136719 87.636719 331.644531 81.75 325.113281 74.53125 C 326.777344 73.292969 327.867188 71.320312 327.867188 69.09375 C 327.867188 66.167969 326 63.679688 323.402344 62.730469 L 326.519531 59.613281 C 327.820312 58.3125 328.539062 56.582031 328.539062 54.734375 C 328.539062 52.890625 327.820312 51.15625 326.519531 49.859375 C 324.328125 47.664062 320.886719 47.222656 318.210938 48.746094 C 317.398438 45.78125 314.652344 43.660156 311.550781 43.660156 C 308.449219 43.664062 305.703125 45.78125 304.890625 48.746094 C 302.214844 47.222656 298.773438 47.664062 296.582031 49.859375 C 293.890625 52.546875 293.890625 56.921875 296.582031 59.613281 L 299.699219 62.730469 C 297.101562 63.679688 295.238281 66.167969 295.238281 69.09375 C 295.238281 71.320312 296.324219 73.296875 297.988281 74.53125 C 291.460938 81.75 286.96875 87.636719 283.980469 92.875 C 280.308594 99.316406 279.191406 106.105469 280.703125 112.636719 L 270.691406 118.429688 L 269.679688 116.644531 C 268.964844 115.386719 267.800781 114.480469 266.402344 114.09375 C 265.003906 113.707031 263.539062 113.886719 262.28125 114.597656 L 256.726562 117.738281 C 255.46875 118.449219 254.558594 119.609375 254.171875 121.007812 C 253.785156 122.40625 253.964844 123.871094 254.675781 125.128906 L 271.003906 153.953125 C 271.714844 155.210938 272.878906 156.117188 274.277344 156.503906 C 274.761719 156.636719 275.253906 156.703125 275.742188 156.703125 C 276.664062 156.703125 277.578125 156.46875 278.402344 156 L 283.953125 152.859375 C 286.558594 151.386719 287.480469 148.070312 286.003906 145.46875 L 284.691406 143.152344 L 287.125 141.746094 L 312.171875 148.453125 C 313.636719 148.84375 315.09375 149.039062 316.53125 149.039062 C 319.433594 149.039062 322.242188 148.242188 324.804688 146.664062 L 360.722656 124.566406 C 364.332031 122.34375 365.492188 116.777344 363.15625 112.878906 C 362.03125 111 357.4375 105.40625 345.609375 112.285156 Z M 302.023438 70.847656 C 301.054688 70.847656 300.265625 70.058594 300.265625 69.09375 C 300.265625 68.125 301.054688 67.335938 302.023438 67.335938 L 321.078125 67.335938 C 322.046875 67.335938 322.835938 68.125 322.835938 69.09375 C 322.835938 70.058594 322.046875 70.847656 321.078125 70.847656 Z M 300.136719 53.410156 C 300.753906 52.792969 301.742188 52.6875 302.480469 53.160156 C 303.8125 54.015625 305.417969 54.160156 306.882812 53.554688 C 308.347656 52.945312 309.378906 51.710938 309.71875 50.164062 C 309.90625 49.308594 310.675781 48.6875 311.550781 48.6875 C 312.425781 48.6875 313.195312 49.308594 313.382812 50.164062 C 313.722656 51.710938 314.753906 52.945312 316.21875 53.554688 C 317.683594 54.160156 319.289062 54.015625 320.625 53.160156 C 321.363281 52.6875 322.347656 52.792969 322.964844 53.410156 C 323.695312 54.140625 323.695312 55.328125 322.964844 56.058594 L 316.707031 62.3125 L 306.394531 62.3125 L 300.136719 56.058594 C 299.40625 55.328125 299.40625 54.140625 300.136719 53.410156 Z M 288.351562 95.359375 C 291.421875 89.972656 296.277344 83.757812 303.578125 75.871094 L 319.523438 75.871094 C 326.824219 83.757812 331.679688 89.972656 334.75 95.359375 C 339.308594 103.355469 339.082031 111.921875 334.15625 118.953125 L 325.820312 123.804688 C 325.410156 124.042969 325 124.25 324.582031 124.425781 C 324.65625 124.210938 324.722656 123.992188 324.785156 123.769531 C 325.894531 119.636719 323.472656 115.328125 319.265625 113.914062 C 319.421875 113.761719 319.574219 113.605469 319.714844 113.445312 C 321.03125 111.925781 321.59375 110.027344 321.339844 107.949219 C 320.835938 103.808594 317.660156 101.230469 311.898438 100.285156 C 307.449219 99.554688 307.367188 97.910156 307.335938 97.292969 C 307.222656 94.960938 309.765625 94.265625 310.273438 94.148438 C 312.351562 93.679688 314.910156 94.316406 315.957031 96.804688 C 316.492188 98.082031 317.96875 98.683594 319.246094 98.148438 C 320.527344 97.609375 321.128906 96.136719 320.59375 94.859375 C 319.246094 91.652344 316.6875 89.914062 313.984375 89.277344 L 313.984375 88.234375 C 313.984375 86.84375 312.859375 85.71875 311.46875 85.71875 C 310.082031 85.71875 308.957031 86.84375 308.957031 88.234375 L 308.957031 89.296875 C 304.785156 90.328125 302.125 93.617188 302.316406 97.535156 C 302.453125 100.417969 304.089844 104.09375 311.082031 105.242188 C 315.480469 105.964844 316.207031 107.390625 316.347656 108.554688 C 316.429688 109.222656 316.292969 109.714844 315.910156 110.15625 C 315.160156 111.027344 313.472656 111.640625 311.710938 111.683594 C 311.144531 111.695312 310.535156 111.640625 309.9375 111.5 C 309.589844 111.390625 309.246094 111.277344 308.90625 111.164062 C 307.785156 110.679688 306.835938 109.820312 306.496094 108.449219 C 306.160156 107.105469 304.796875 106.285156 303.445312 106.621094 C 302.464844 106.863281 301.765625 107.65625 301.589844 108.585938 C 300.597656 108.234375 299.664062 107.90625 298.828125 107.632812 C 293.726562 105.980469 289.160156 107.816406 285.316406 109.972656 C 284.589844 105.152344 285.617188 100.160156 288.351562 95.359375 Z M 281.476562 148.488281 L 275.921875 151.628906 C 275.808594 151.691406 275.695312 151.683594 275.621094 151.660156 C 275.546875 151.640625 275.445312 151.59375 275.378906 151.476562 L 259.050781 122.652344 C 258.988281 122.539062 258.996094 122.425781 259.019531 122.351562 C 259.039062 122.277344 259.085938 122.175781 259.203125 122.109375 L 264.757812 118.96875 C 264.820312 118.933594 264.886719 118.917969 264.945312 118.917969 C 264.988281 118.917969 265.027344 118.925781 265.058594 118.9375 C 265.132812 118.957031 265.234375 119.003906 265.300781 119.121094 L 281.628906 147.945312 C 281.730469 148.128906 281.660156 148.382812 281.476562 148.488281 Z M 358.085938 120.285156 L 322.167969 142.382812 C 319.503906 144.019531 316.582031 144.429688 313.472656 143.597656 L 287.421875 136.625 C 286.777344 136.449219 286.089844 136.539062 285.511719 136.875 L 282.214844 138.777344 L 273.167969 122.804688 L 287.273438 114.644531 C 291.578125 112.152344 294.476562 111.507812 297.273438 112.414062 C 298.464844 112.800781 299.847656 113.296875 301.445312 113.875 C 303.207031 114.511719 305.132812 115.207031 307.171875 115.882812 C 307.617188 116.066406 308.078125 116.214844 308.558594 116.335938 C 311.46875 117.265625 314.582031 118.125 317.765625 118.710938 C 319.421875 119.316406 320.34375 120.90625 319.925781 122.46875 C 319.757812 123.089844 319.25 124.96875 316.1875 124.625 C 313.320312 124.03125 310.578125 123.25 307.679688 122.425781 C 306.285156 122.027344 304.84375 121.617188 303.363281 121.21875 C 302.019531 120.859375 300.640625 121.65625 300.28125 122.996094 C 299.921875 124.335938 300.71875 125.710938 302.058594 126.070312 C 303.503906 126.457031 304.925781 126.863281 306.300781 127.257812 C 309.335938 128.121094 312.199219 128.941406 315.300781 129.574219 C 315.316406 129.578125 315.332031 129.578125 315.347656 129.582031 C 315.367188 129.585938 315.382812 129.589844 315.402344 129.59375 L 317.863281 129.992188 C 321.722656 130.609375 325.15625 130.003906 328.351562 128.148438 L 348.140625 116.628906 C 353.355469 113.59375 357.457031 113.148438 358.84375 115.460938 C 359.851562 117.148438 359.261719 119.5625 358.085938 120.285156 Z M 265.996094 123.878906 C 266.152344 124.960938 265.402344 125.964844 264.320312 126.125 C 263.234375 126.28125 262.230469 125.53125 262.070312 124.449219 C 261.914062 123.367188 262.664062 122.363281 263.746094 122.203125 C 264.828125 122.042969 265.835938 122.792969 265.996094 123.878906 Z M 380.980469 32.503906 L 364.65625 3.683594 C 363.179688 1.078125 359.863281 0.160156 357.257812 1.632812 L 351.703125 4.773438 C 350.445312 5.484375 349.539062 6.648438 349.148438 8.046875 C 348.761719 9.445312 348.941406 10.90625 349.652344 12.164062 L 350.964844 14.484375 L 348.53125 15.886719 L 323.484375 9.179688 C 319.054688 7.996094 314.683594 8.613281 310.851562 10.972656 L 274.933594 33.070312 C 271.324219 35.289062 270.164062 40.859375 272.5 44.753906 C 273.625 46.632812 278.222656 52.226562 290.046875 45.347656 L 309.839844 33.828125 C 310.246094 33.59375 310.65625 33.386719 311.074219 33.207031 C 311 33.421875 310.933594 33.640625 310.871094 33.867188 C 309.757812 38.027344 312.21875 42.371094 316.480469 43.75 C 316.589844 43.785156 316.699219 43.8125 316.808594 43.832031 C 322.4375 44.847656 328.015625 46.863281 332.5 48.484375 C 334.074219 49.050781 335.558594 49.589844 336.832031 50 C 338.207031 50.445312 339.546875 50.636719 340.839844 50.636719 C 344.582031 50.636719 347.964844 49.039062 350.90625 47.339844 L 364.96875 39.203125 L 365.980469 40.988281 C 366.976562 42.75 368.820312 43.738281 370.710938 43.738281 C 371.617188 43.738281 372.535156 43.511719 373.378906 43.035156 L 378.929688 39.898438 C 380.191406 39.183594 381.097656 38.023438 381.484375 36.625 C 381.871094 35.226562 381.695312 33.761719 380.980469 32.503906 Z M 348.386719 42.988281 C 344.078125 45.480469 341.183594 46.128906 338.382812 45.21875 C 337.191406 44.835938 335.808594 44.335938 334.210938 43.757812 C 329.597656 42.089844 323.867188 40.019531 317.894531 38.921875 C 316.238281 38.316406 315.3125 36.726562 315.730469 35.167969 C 315.898438 34.542969 316.40625 32.664062 319.46875 33.007812 C 322.335938 33.601562 325.078125 34.382812 327.976562 35.210938 C 329.371094 35.605469 330.8125 36.019531 332.296875 36.414062 C 332.515625 36.472656 332.734375 36.5 332.949219 36.5 C 334.058594 36.5 335.074219 35.761719 335.375 34.636719 C 335.734375 33.296875 334.9375 31.921875 333.597656 31.5625 C 332.152344 31.175781 330.730469 30.769531 329.359375 30.378906 C 326.324219 29.511719 323.457031 28.695312 320.355469 28.058594 C 320.339844 28.058594 320.324219 28.054688 320.308594 28.054688 C 320.292969 28.050781 320.273438 28.042969 320.257812 28.042969 L 317.792969 27.640625 C 313.933594 27.023438 310.503906 27.628906 307.308594 29.488281 L 287.515625 41.003906 C 282.300781 44.039062 278.203125 44.484375 276.816406 42.171875 C 275.804688 40.488281 276.394531 38.070312 277.570312 37.347656 L 313.488281 15.25 C 316.152344 13.613281 319.078125 13.203125 322.183594 14.035156 L 348.238281 21.011719 C 348.878906 21.183594 349.566406 21.09375 350.144531 20.757812 L 353.441406 18.855469 L 362.492188 34.832031 Z M 376.636719 35.28125 C 376.617188 35.355469 376.570312 35.457031 376.453125 35.523438 L 370.902344 38.664062 C 370.714844 38.769531 370.460938 38.699219 370.355469 38.515625 L 356.558594 14.160156 C 356.558594 14.160156 356.558594 14.15625 356.558594 14.15625 L 354.03125 9.691406 C 353.964844 9.574219 353.976562 9.460938 353.996094 9.386719 C 354.015625 9.3125 354.066406 9.210938 354.179688 9.148438 L 359.734375 6.007812 C 359.917969 5.902344 360.171875 5.972656 360.277344 6.15625 L 376.605469 34.980469 C 376.667969 35.09375 376.660156 35.207031 376.636719 35.28125 Z M 373.585938 33.183594 C 373.746094 34.265625 372.996094 35.273438 371.910156 35.429688 C 370.828125 35.589844 369.820312 34.839844 369.664062 33.757812 C 369.503906 32.675781 370.253906 31.667969 371.335938 31.511719 C 372.421875 31.351562 373.429688 32.101562 373.585938 33.183594 Z M 355.8125 55.074219 L 355.8125 81.597656 L 357.542969 79.382812 C 358.394531 78.289062 359.976562 78.09375 361.070312 78.949219 C 362.164062 79.800781 362.359375 81.382812 361.503906 82.476562 L 355.277344 90.441406 C 354.800781 91.050781 354.070312 91.40625 353.296875 91.40625 C 352.523438 91.40625 351.789062 91.050781 351.3125 90.441406 L 345.085938 82.476562 C 344.234375 81.382812 344.425781 79.800781 345.523438 78.949219 C 346.617188 78.09375 348.195312 78.289062 349.050781 79.382812 L 350.78125 81.597656 L 350.78125 55.074219 C 350.78125 53.683594 351.90625 52.558594 353.296875 52.558594 C 354.683594 52.558594 355.8125 53.683594 355.8125 55.074219 Z M 355.8125 55.074219 " fill-opacity="1" fill-rule="nonzero"/></g></svg>